<svg width="32" height="59" viewBox="0 0 32 59" fill="none" xmlns="http://www.w3.org/2000/svg">
<path d="M0.00298658 29.1276C0.0261288 30.1179 0.415842 31.0644 1.09669 31.7838L25.0968 56.7839C25.8353 57.5468 26.8461 57.9858 27.9077 58.0047C28.9693 58.0236 29.9951 57.6208 30.7603 56.8846C31.5254 56.1484 31.9675 55.1389 31.9895 54.0774C32.0116 53.0158 31.6119 51.9889 30.878 51.2215L9.53429 29.0026L30.878 6.78384C31.6119 6.0165 32.0116 4.9895 31.9895 3.92794C31.9675 2.86638 31.5254 1.85687 30.7603 1.12069C29.9951 0.384511 28.9693 -0.0182518 27.9077 0.000635522C26.8461 0.0195228 25.8353 0.458529 25.0968 1.22146L1.09669 26.2215C0.729886 26.6085 0.444174 27.065 0.256351 27.5641C0.0685283 28.0632 -0.0176148 28.5948 0.00298658 29.1276Z" fill="#FF6252"/>
</svg>
