<svg width="32" height="59" viewBox="0 0 32 59" fill="none" xmlns="http://www.w3.org/2000/svg">
<path d="M31.9874 29.1276C31.9642 30.1179 31.5745 31.0644 30.8937 31.7838L6.89357 56.7839C6.1551 57.5468 5.14427 57.9858 4.08265 58.0047C3.02103 58.0236 1.99522 57.6208 1.23008 56.8846C0.464945 56.1484 0.0228939 55.1389 0.000827789 54.0774C-0.0212364 53.0158 0.378483 51.9889 1.11237 51.2215L22.4561 29.0026L1.11237 6.78384C0.378483 6.0165 -0.0212364 4.9895 0.000827789 3.92794C0.0228939 2.86638 0.464945 1.85687 1.23008 1.12069C1.99522 0.384511 3.02103 -0.0182518 4.08265 0.000635522C5.14427 0.0195228 6.1551 0.458529 6.89357 1.22146L30.8937 26.2215C31.2605 26.6085 31.5462 27.065 31.734 27.5641C31.9218 28.0632 32.008 28.5948 31.9874 29.1276Z" fill="#FF6252"/>
</svg>
