<svg width="156" height="32" viewBox="0 0 156 32" fill="none" xmlns="http://www.w3.org/2000/svg">
<path d="M27.9131 27.7832C27.9131 28.9628 26.9594 29.9165 25.7798 29.9165C25.4787 29.9165 25.1875 29.8513 24.9265 29.7358C22.989 30.7247 20.8456 31.2467 18.642 31.2467C11.0273 31.2467 4.78802 25.0526 4.73783 17.4329C4.73281 16.7402 5.28998 16.173 5.98268 16.1679C5.9877 16.1679 5.9877 16.1679 5.99272 16.1679C6.6804 16.1679 7.24259 16.7251 7.24761 17.4128C7.28776 23.6521 12.3977 28.7319 18.642 28.7319C20.4039 28.7319 22.1156 28.3304 23.6716 27.5624C23.782 26.4882 24.6805 25.6449 25.7849 25.6449C26.9594 25.6499 27.9131 26.6086 27.9131 27.7832ZM18.642 3.44336C16.328 3.44336 14.0943 4.01559 12.0865 5.0948C11.8355 4.9944 11.5644 4.93417 11.2783 4.93417C10.0987 4.93417 9.145 5.88789 9.145 7.06748C9.145 8.24708 10.0987 9.2008 11.2783 9.2008C12.3977 9.2008 13.3062 8.33743 13.3966 7.23815C15.0129 6.39486 16.7998 5.94812 18.647 5.94812C24.9315 5.94812 30.0414 11.058 30.0414 17.3375C30.0414 17.3475 30.0414 17.4028 30.0414 17.4128C30.0364 18.1005 30.5836 18.6426 31.2662 18.6577C31.2763 18.6577 31.2863 18.6577 31.2963 18.6577C31.969 18.6577 32.5261 18.1055 32.5512 17.4329C32.5512 17.4178 32.5512 17.3576 32.5512 17.3425C32.5462 9.67766 26.3069 3.44336 18.642 3.44336Z" fill="#FF6252"/>
<path d="M77.9781 17.3526C77.9781 18.9137 77.7171 20.274 77.19 21.4335C76.663 22.588 75.9853 23.5518 75.1521 24.3248C74.3188 25.0978 73.3651 25.6701 72.2909 26.0415C71.2218 26.418 70.1375 26.6037 69.0483 26.6037C67.954 26.6037 66.8748 26.418 65.8057 26.0415C64.7365 25.665 63.7778 25.0928 62.9295 24.3248C62.0812 23.5518 61.4035 22.588 60.8915 21.4335C60.3795 20.279 60.1185 18.9187 60.1185 17.3526C60.1185 15.7916 60.3745 14.4313 60.8915 13.2717C61.4035 12.1172 62.0812 11.1585 62.9144 10.3955C63.7476 9.63758 64.7014 9.07037 65.7755 8.6939C66.8447 8.31743 67.939 8.13171 69.0533 8.13171C70.2078 8.13171 71.3322 8.32747 72.4265 8.72402C73.5207 9.12056 74.4945 9.72291 75.3479 10.5411V1.3553C75.3479 0.993893 75.4784 0.68268 75.7344 0.421663C75.9904 0.165665 76.3016 0.0351562 76.668 0.0351562C77.0344 0.0351562 77.3406 0.165665 77.6016 0.421663C77.8627 0.67766 77.9881 0.988873 77.9881 1.3553V17.3526H77.9781ZM75.3479 17.2874C75.3479 16.153 75.1672 15.1742 74.8007 14.3459C74.4343 13.5227 73.9625 12.8451 73.3701 12.323C72.7829 11.796 72.1102 11.4095 71.3623 11.1485C70.6144 10.8925 69.8414 10.762 69.0483 10.762C68.2351 10.762 67.4521 10.8925 66.7042 11.1485C65.9563 11.4045 65.2836 11.801 64.6963 12.3381C64.1091 12.8752 63.6372 13.5579 63.2808 14.3961C62.9295 15.2294 62.7488 16.2182 62.7488 17.3526C62.7488 18.4871 62.9244 19.4709 63.2808 20.3092C63.6322 21.1424 64.104 21.8351 64.6963 22.3822C65.2836 22.9294 65.9613 23.3309 66.7192 23.5869C67.4772 23.8429 68.2552 23.9734 69.0483 23.9734C69.8414 23.9734 70.6094 23.8429 71.3623 23.5869C72.1102 23.3309 72.7829 22.9294 73.3701 22.3822C73.9574 21.8351 74.4343 21.1474 74.8007 20.3092C75.1621 19.4709 75.3479 18.467 75.3479 17.2874ZM58.9791 16.163C58.7331 14.0397 57.7091 12.0721 56.1028 10.6214C54.4815 9.16072 52.4034 8.35759 50.25 8.35759C47.921 8.35759 45.7224 9.28119 44.0509 10.9527C42.3794 12.6292 41.4608 14.8429 41.4658 17.187C41.4658 17.2272 41.4758 17.2673 41.4758 17.3024C41.4758 17.3225 41.4708 17.3426 41.4658 17.3627C41.3905 19.752 42.279 22.0259 43.9605 23.7626C45.6421 25.4944 47.8708 26.4481 50.25 26.4481C51.5903 26.4481 52.8803 26.1469 54.09 25.5496C54.7074 25.2434 54.9634 24.4955 54.6572 23.8731C54.351 23.2556 53.6031 22.9997 52.9807 23.3058C52.1223 23.7325 51.1987 23.9484 50.245 23.9484C48.5534 23.9484 46.9572 23.2657 45.7525 22.0208C44.5428 20.776 43.9103 19.1496 43.9605 17.443C43.9605 17.3828 43.9555 17.3275 43.9505 17.2723C43.9505 17.2422 43.9605 17.2121 43.9605 17.182C43.9555 15.5054 44.6181 13.9193 45.8178 12.7196C47.0124 11.5199 48.5886 10.8573 50.245 10.8573C53.2819 10.8573 55.9523 13.1613 56.4492 16.153H49.2913C48.5986 16.153 48.0414 16.7152 48.0414 17.4028C48.0414 18.0905 48.6036 18.6527 49.2913 18.6527H56.7705C57.4029 18.6527 58.0053 18.3817 58.4269 17.9098C58.8486 17.433 59.0493 16.7955 58.9791 16.163ZM27.3106 16.0927C27.0647 13.9695 26.0407 12.0018 24.4344 10.5511C22.8131 9.09045 20.735 8.28732 18.5816 8.28732C16.2525 8.28732 14.054 9.21092 12.3825 10.8824C10.711 12.559 9.79237 14.7726 9.79739 17.1167C9.79739 17.1569 9.80743 17.197 9.80743 17.2322C9.80743 17.2523 9.80241 17.2723 9.79739 17.2924C9.7221 19.6817 10.6106 21.9556 12.2921 23.6924C13.9737 25.4241 16.2024 26.3778 18.5816 26.3778C19.9218 26.3778 21.2119 26.0766 22.4216 25.4793C23.039 25.1731 23.295 24.4252 22.9888 23.8028C22.6826 23.1854 21.9347 22.9294 21.3123 23.2356C20.4539 23.6622 19.5303 23.8781 18.5766 23.8781C16.885 23.8781 15.2888 23.1954 14.0841 21.9506C12.8744 20.7057 12.2419 19.0794 12.2921 17.3727C12.2921 17.3125 12.2871 17.2573 12.2821 17.2021C12.2821 17.1719 12.2921 17.1418 12.2921 17.1117C12.2871 15.4352 12.9497 13.849 14.1494 12.6493C15.344 11.4496 16.9201 10.7871 18.5766 10.7871C21.6134 10.7871 24.2838 13.091 24.7808 16.0827H17.6229C16.9302 16.0827 16.373 16.6449 16.373 17.3326C16.373 18.0202 16.9352 18.5824 17.6229 18.5824H25.102C25.7345 18.5824 26.3368 18.3114 26.7585 17.8395C27.1852 17.3627 27.3859 16.7252 27.3106 16.0927Z" fill="#FF6252"/>
<path d="M121.93 10.0291C121.93 9.66768 122.06 9.35646 122.316 9.09545C122.572 8.83443 122.883 8.70894 123.25 8.70894C123.616 8.70894 123.922 8.83945 124.183 9.09545C124.439 9.35144 124.57 9.66266 124.57 10.0291V18.6075C124.57 19.0593 124.62 19.5161 124.715 19.9879C124.811 20.4597 124.956 20.9215 125.147 21.3683C125.338 21.82 125.579 22.2316 125.87 22.6031C126.161 22.9796 126.487 23.2857 126.849 23.5166C127.019 23.6221 127.16 23.7626 127.265 23.9333C127.456 24.2344 127.516 24.5607 127.441 24.9121C127.366 25.2635 127.195 25.5345 126.929 25.7152C126.663 25.8959 126.397 25.9813 126.141 25.9712C125.885 25.9612 125.649 25.8809 125.433 25.7303C124.961 25.409 124.57 25.0777 124.259 24.7364C123.947 24.3951 123.676 23.9985 123.44 23.5468C123.335 23.3309 123.199 23.2105 123.039 23.1753C122.878 23.1452 122.733 23.2155 122.607 23.3861C121.729 24.4804 120.67 25.2835 119.425 25.7955C118.18 26.3075 116.92 26.5685 115.635 26.5685C114.541 26.5685 113.462 26.3828 112.392 26.0063C111.323 25.6299 110.369 25.0577 109.531 24.2897C108.698 23.5166 108.015 22.5529 107.493 21.3984C106.966 20.2439 106.705 18.8836 106.705 17.3175C106.705 15.7564 106.961 14.3961 107.478 13.2366C107.99 12.0821 108.673 11.1233 109.516 10.3604C110.359 9.60242 111.318 9.03019 112.392 8.65874C113.462 8.28228 114.546 8.09655 115.635 8.09655C116.79 8.09655 117.914 8.30236 119.008 8.70894C120.102 9.11553 121.076 9.72791 121.93 10.5411V10.0291ZM109.852 14.366C109.511 15.1992 109.34 16.1881 109.34 17.3225C109.34 18.477 109.516 19.4709 109.873 20.2941C110.224 21.1173 110.696 21.805 111.288 22.3521C111.875 22.8992 112.553 23.3008 113.311 23.5568C114.069 23.8128 114.847 23.9433 115.64 23.9433C116.433 23.9433 117.206 23.8128 117.969 23.5568C118.727 23.3008 119.4 22.9043 119.977 22.3672C120.574 21.81 121.051 21.1223 121.408 20.2941C121.759 19.4709 121.94 18.477 121.94 17.3225C121.94 16.1881 121.759 15.2043 121.392 14.366C121.051 13.5327 120.584 12.8451 119.997 12.308C119.41 11.7709 118.732 11.3743 117.974 11.1183C117.211 10.8623 116.438 10.7318 115.645 10.7318C114.832 10.7318 114.049 10.8623 113.301 11.1183C112.553 11.3743 111.88 11.7709 111.293 12.308C110.691 12.8451 110.214 13.5277 109.852 14.366ZM131.783 17.3526C131.783 18.487 131.959 19.4709 132.315 20.3091C132.666 21.1424 133.138 21.8351 133.731 22.3822C134.318 22.9294 134.995 23.3309 135.753 23.5869C136.511 23.8429 137.289 23.9734 138.082 23.9734C138.444 23.9734 138.755 24.1039 139.016 24.3599C139.277 24.6159 139.403 24.9271 139.403 25.2936C139.403 25.66 139.272 25.9662 139.016 26.2272C138.76 26.4832 138.449 26.6137 138.082 26.6137C136.988 26.6137 135.909 26.428 134.84 26.0515C133.771 25.6751 132.817 25.1028 131.979 24.3348C131.145 23.5618 130.463 22.5981 129.941 21.4436C129.414 20.2891 129.153 18.9288 129.153 17.3627V12.1172C129.153 11.796 129.042 11.5299 128.816 11.3141C128.59 11.0983 128.329 10.9928 128.028 10.9928H126.934C126.633 10.9928 126.372 10.8824 126.146 10.6565C125.92 10.4306 125.81 10.1696 125.81 9.86846C125.81 9.54721 125.92 9.28117 126.146 9.06533C126.372 8.84949 126.633 8.74408 126.934 8.74408H128.028C128.329 8.74408 128.59 8.63365 128.816 8.40777C129.042 8.18189 129.153 7.92087 129.153 7.6197V1.32014C129.153 0.958736 129.283 0.647523 129.539 0.386506C129.795 0.130509 130.106 0 130.473 0C130.834 0 131.145 0.130509 131.406 0.386506C131.662 0.642504 131.793 0.953717 131.793 1.32014V7.61468C131.793 7.91585 131.903 8.17687 132.129 8.40275C132.355 8.62863 132.616 8.73906 132.917 8.73906H136.868C137.169 8.73906 137.43 8.84447 137.656 9.06031C137.882 9.27615 137.992 9.54219 137.992 9.86344C137.992 10.1646 137.882 10.4256 137.656 10.6515C137.43 10.8774 137.169 10.9878 136.868 10.9878H132.917C132.616 10.9878 132.355 11.0932 132.129 11.3091C131.903 11.5249 131.793 11.791 131.793 12.1122V17.3526H131.783ZM103.673 10.3654C102.439 8.98 100.611 8.27726 98.2422 8.27726C95.9383 8.27726 94.1312 8.97498 92.8663 10.3453C92.7257 10.4959 92.6003 10.6515 92.4848 10.8071C92.3744 10.6565 92.2589 10.511 92.1334 10.3654C90.8986 8.98 89.0715 8.27726 86.7023 8.27726C84.3983 8.27726 82.5912 8.97498 81.3263 10.3453C79.454 12.3732 79.5243 15.1641 79.5494 15.6359V25.3538C79.5494 26.0716 80.1317 26.6539 80.8495 26.6539C81.5673 26.6539 82.1495 26.0716 82.1495 25.3538V15.5958L82.1445 15.4954C82.1445 15.4753 82.014 13.4223 83.2488 12.0971C84.0017 11.289 85.1613 10.8774 86.7023 10.8774C88.2884 10.8774 89.458 11.284 90.1808 12.0821C90.9488 12.9354 91.0944 14.0899 91.1094 14.7023C91.0743 15.1591 91.0843 15.5004 91.0944 15.6359V25.3538C91.0944 26.0716 91.6766 26.6539 92.3944 26.6539C93.1122 26.6539 93.6945 26.0716 93.6945 25.3538V15.5958V15.3297C93.7046 15.2243 93.7146 15.0386 93.7096 14.7926C93.7748 14.0698 94.0107 12.9404 94.7938 12.0971C95.5467 11.289 96.7062 10.8774 98.2472 10.8774C99.8334 10.8774 101.003 11.284 101.726 12.0821C102.82 13.2918 102.649 15.1089 102.644 15.1189L102.634 15.1942V25.3538C102.634 26.0716 103.217 26.6539 103.934 26.6539C104.652 26.6539 105.234 26.0716 105.234 25.3538V15.3297C105.275 14.8127 105.38 12.2728 103.673 10.3654ZM155.917 16.163C155.671 14.0397 154.647 12.072 153.041 10.6214C151.419 9.1607 149.341 8.35757 147.188 8.35757C144.859 8.35757 142.66 9.28117 140.989 10.9527C139.317 12.6292 138.399 14.8428 138.404 17.187C138.404 17.2271 138.414 17.2673 138.414 17.3024C138.414 17.3225 138.409 17.3426 138.404 17.3627C138.328 19.752 139.217 22.0258 140.898 23.7626C142.58 25.4944 144.809 26.4481 147.188 26.4481C148.528 26.4481 149.818 26.1469 151.028 25.5496C151.645 25.2434 151.901 24.4955 151.595 23.873C151.289 23.2556 150.541 22.9996 149.919 23.3058C149.06 23.7325 148.137 23.9483 147.183 23.9483C145.491 23.9483 143.895 23.2657 142.69 22.0208C141.481 20.776 140.848 19.1496 140.898 17.443C140.898 17.3827 140.893 17.3275 140.888 17.2723C140.888 17.2422 140.898 17.2121 140.898 17.182C140.893 15.5054 141.556 13.9192 142.756 12.7196C143.95 11.5199 145.527 10.8573 147.183 10.8573C150.22 10.8573 152.89 13.1613 153.387 16.1529H146.224C145.532 16.1529 144.974 16.7151 144.974 17.4028C144.974 18.0905 145.537 18.6527 146.224 18.6527H153.703C154.336 18.6527 154.938 18.3816 155.36 17.9098C155.792 17.4329 155.992 16.7955 155.917 16.163ZM2.48906 20.2539C2.36859 19.5713 1.71103 19.1195 1.03339 19.24C0.350731 19.3605 -0.10103 20.013 0.0194396 20.6957C0.682022 24.4101 2.43385 27.8084 5.07414 30.529C5.3201 30.78 5.64637 30.9105 5.97264 30.9105C6.28887 30.9105 6.60511 30.79 6.84604 30.5541C7.34298 30.0722 7.35302 29.2741 6.87114 28.7771C4.58222 26.418 3.06631 23.4715 2.48906 20.2539ZM37.2847 14.125C36.607 10.1696 34.7197 6.59571 31.8234 3.77973C31.3264 3.29785 30.5334 3.30789 30.0465 3.80483C29.5646 4.30176 29.5746 5.09486 30.0716 5.58175C32.5864 8.02628 34.2227 11.1284 34.81 14.5517C34.9154 15.1641 35.4475 15.5958 36.0448 15.5958C36.1151 15.5958 36.1854 15.5908 36.2607 15.5757C36.9433 15.4603 37.4051 14.8077 37.2847 14.125ZM26.5779 5.9281C26.0107 5.53156 25.2277 5.6721 24.8311 6.23932C24.4346 6.80653 24.5751 7.58958 25.1423 7.98612C28.2043 10.1194 30.0364 13.6181 30.0364 17.3376C30.0364 17.3476 30.0364 17.4028 30.0364 17.4129C30.0314 18.1005 30.5785 18.6427 31.2612 18.6577C31.2712 18.6577 31.2813 18.6577 31.2913 18.6577C31.9639 18.6577 32.5211 18.1056 32.5462 17.4329C32.5462 17.4179 32.5462 17.3576 32.5462 17.3426C32.5462 12.7999 30.3125 8.53326 26.5779 5.9281ZM12.0764 26.6539C9.07975 24.5356 7.27271 21.0822 7.25263 17.4179C7.24761 16.7252 6.68542 16.173 5.99774 16.173C5.99272 16.173 5.99272 16.173 5.9877 16.173C5.295 16.178 4.73783 16.7453 4.74285 17.438C4.77296 21.9054 6.97153 26.1218 10.6308 28.7069C10.8517 28.8625 11.1026 28.9378 11.3536 28.9378C11.7451 28.9378 12.1367 28.7521 12.3776 28.4057C12.7741 27.8385 12.6436 27.0554 12.0764 26.6539Z" fill="white"/>
</svg>
