<svg width="121" height="25" viewBox="0 0 121 25" fill="none" xmlns="http://www.w3.org/2000/svg">
<path d="M21.66 21.5592C21.66 22.4745 20.92 23.2146 20.0046 23.2146C19.7709 23.2146 19.545 23.1639 19.3425 23.0743C17.839 23.8417 16.1758 24.2468 14.4659 24.2468C8.55705 24.2468 3.71549 19.4402 3.67654 13.5275C3.67264 12.99 4.105 12.5499 4.64252 12.546C4.64641 12.546 4.64641 12.546 4.65031 12.546C5.18393 12.546 5.62018 12.9783 5.62407 13.512C5.65523 18.3535 9.62041 22.2953 14.4659 22.2953C15.833 22.2953 17.1613 21.9837 18.3687 21.3878C18.4544 20.5542 19.1516 19.8999 20.0085 19.8999C20.92 19.9038 21.66 20.6477 21.66 21.5592ZM14.4659 2.672C12.6702 2.672 10.9369 3.11603 9.37891 3.95347C9.18416 3.87557 8.97383 3.82883 8.75181 3.82883C7.83647 3.82883 7.09641 4.56889 7.09641 5.48423C7.09641 6.39957 7.83647 7.13963 8.75181 7.13963C9.62041 7.13963 10.3254 6.46968 10.3955 5.61666C11.6497 4.96229 13.0364 4.61563 14.4698 4.61563C19.3464 4.61563 23.3116 8.58081 23.3116 13.4535C23.3116 13.4613 23.3116 13.5042 23.3116 13.512C23.3077 14.0456 23.7322 14.4662 24.262 14.4779C24.2697 14.4779 24.2775 14.4779 24.2853 14.4779C24.8073 14.4779 25.2396 14.0495 25.2591 13.5275C25.2591 13.5159 25.2591 13.4691 25.2591 13.4574C25.2552 7.50967 20.4136 2.672 14.4659 2.672Z" fill="#FF6252"/>
<path d="M60.5092 13.4653C60.5092 14.6766 60.3067 15.7322 59.8977 16.6319C59.4887 17.5278 58.9629 18.2757 58.3163 18.8755C57.6697 19.4753 56.9296 19.9194 56.0961 20.2076C55.2664 20.4997 54.4251 20.6439 53.5799 20.6439C52.7308 20.6439 51.8933 20.4997 51.0637 20.2076C50.234 19.9155 49.4901 19.4714 48.8318 18.8755C48.1735 18.2757 47.6477 17.5278 47.2504 16.6319C46.8531 15.7361 46.6506 14.6805 46.6506 13.4653C46.6506 12.2539 46.8492 11.1983 47.2504 10.2986C47.6477 9.4027 48.1735 8.65874 48.8201 8.06669C49.4667 7.47854 50.2068 7.0384 51.0403 6.74627C51.8699 6.45414 52.7191 6.31002 53.5838 6.31002C54.4796 6.31002 55.3521 6.46193 56.2013 6.76964C57.0504 7.07735 57.806 7.54475 58.4682 8.17965V1.05168C58.4682 0.77124 58.5695 0.529746 58.7681 0.327203C58.9668 0.128554 59.2083 0.0272827 59.4926 0.0272827C59.7769 0.0272827 60.0145 0.128554 60.2171 0.327203C60.4196 0.525851 60.517 0.767345 60.517 1.05168V13.4653H60.5092ZM58.4682 13.4146C58.4682 12.5343 58.328 11.7748 58.0436 11.1321C57.7593 10.4933 57.3931 9.96749 56.9335 9.5624C56.4778 9.15342 55.9559 8.8535 55.3755 8.65095C54.7951 8.45231 54.1953 8.35103 53.5799 8.35103C52.9489 8.35103 52.3413 8.45231 51.7609 8.65095C51.1805 8.8496 50.6586 9.15731 50.2029 9.57408C49.7471 9.99086 49.381 10.5206 49.1045 11.1711C48.8318 11.8176 48.6916 12.585 48.6916 13.4653C48.6916 14.3455 48.8279 15.109 49.1045 15.7594C49.3771 16.406 49.7432 16.9435 50.2029 17.3681C50.6586 17.7927 51.1844 18.1043 51.7726 18.3029C52.3607 18.5016 52.9645 18.6028 53.5799 18.6028C54.1953 18.6028 54.7912 18.5016 55.3755 18.3029C55.9559 18.1043 56.4778 17.7927 56.9335 17.3681C57.3893 16.9435 57.7593 16.4099 58.0436 15.7594C58.3241 15.109 58.4682 14.33 58.4682 13.4146ZM45.7664 12.5421C45.5755 10.8945 44.7809 9.36765 43.5345 8.24197C42.2764 7.10851 40.6638 6.4853 38.9929 6.4853C37.1856 6.4853 35.4795 7.20199 34.1825 8.49905C32.8854 9.8 32.1726 11.5177 32.1765 13.3367C32.1765 13.3679 32.1843 13.399 32.1843 13.4263C32.1843 13.4419 32.1804 13.4575 32.1765 13.473C32.1181 15.3271 32.8075 17.0916 34.1124 18.4392C35.4172 19.783 37.1466 20.5231 38.9929 20.5231C40.0328 20.5231 41.0339 20.2894 41.9726 19.8259C42.4517 19.5883 42.6503 19.0079 42.4127 18.5249C42.1751 18.0458 41.5948 17.8472 41.1118 18.0848C40.4457 18.4159 39.729 18.5834 38.989 18.5834C37.6763 18.5834 36.4377 18.0536 35.5029 17.0877C34.5642 16.1217 34.0734 14.8597 34.1124 13.5354C34.1124 13.4886 34.1085 13.4458 34.1046 13.4029C34.1046 13.3796 34.1124 13.3562 34.1124 13.3328C34.1085 12.0319 34.6226 10.801 35.5535 9.87011C36.4806 8.93919 37.7036 8.42504 38.989 8.42504C41.3455 8.42504 43.4177 10.2129 43.8033 12.5343H38.2489C37.7114 12.5343 37.279 12.9706 37.279 13.5042C37.279 14.0378 37.7153 14.4741 38.2489 14.4741H44.0526C44.5433 14.4741 45.0107 14.2637 45.3379 13.8976C45.6651 13.5276 45.8209 13.0329 45.7664 12.5421ZM21.1924 12.4876C21.0016 10.84 20.207 9.31311 18.9606 8.18744C17.7025 7.05398 16.0899 6.43077 14.4189 6.43077C12.6116 6.43077 10.9056 7.14746 9.60851 8.44452C8.31145 9.74547 7.59866 11.4632 7.60255 13.2822C7.60255 13.3133 7.61034 13.3445 7.61034 13.3718C7.61034 13.3873 7.60645 13.4029 7.60255 13.4185C7.54413 15.2726 8.23355 17.037 9.5384 18.3847C10.8432 19.7285 12.5727 20.4686 14.4189 20.4686C15.4589 20.4686 16.4599 20.2349 17.3986 19.7714C17.8777 19.5338 18.0764 18.9534 17.8388 18.4704C17.6012 17.9913 17.0208 17.7927 16.5378 18.0303C15.8718 18.3613 15.1551 18.5288 14.415 18.5288C13.1024 18.5288 11.8638 17.9991 10.9289 17.0331C9.99023 16.0672 9.49945 14.8052 9.5384 13.4808C9.5384 13.4341 9.5345 13.3912 9.53061 13.3484C9.53061 13.325 9.5384 13.3017 9.5384 13.2783C9.5345 11.9773 10.0487 10.7465 10.9796 9.81558C11.9066 8.88466 13.1296 8.37051 14.415 8.37051C16.7715 8.37051 18.8437 10.1583 19.2293 12.4798H13.675C13.1374 12.4798 12.7051 12.916 12.7051 13.4497C12.7051 13.9833 13.1413 14.4195 13.675 14.4195H19.4786C19.9694 14.4195 20.4368 14.2092 20.764 13.8431C21.0951 13.473 21.2509 12.9784 21.1924 12.4876Z" fill="#55198A"/>
<path d="M94.6145 7.78234C94.6145 7.50189 94.7158 7.2604 94.9144 7.05786C95.1131 6.85531 95.3546 6.75794 95.6389 6.75794C95.9232 6.75794 96.1608 6.85921 96.3634 7.05786C96.562 7.2565 96.6633 7.498 96.6633 7.78234V14.439C96.6633 14.7896 96.7022 15.144 96.7763 15.5101C96.8503 15.8763 96.9632 16.2346 97.1112 16.5813C97.2592 16.9318 97.4462 17.2512 97.6721 17.5395C97.898 17.8316 98.1512 18.0692 98.4317 18.2484C98.5641 18.3302 98.6731 18.4392 98.7549 18.5717C98.903 18.8054 98.9497 19.0585 98.8913 19.3312C98.8328 19.6039 98.7004 19.8142 98.494 19.9544C98.2875 20.0946 98.0811 20.1608 97.8825 20.1531C97.6838 20.1453 97.5007 20.0829 97.3332 19.9661C96.9671 19.7168 96.6633 19.4597 96.4218 19.1949C96.1803 18.93 95.97 18.6223 95.7869 18.2717C95.7051 18.1043 95.5999 18.0108 95.4753 17.9835C95.3507 17.9601 95.2377 18.0147 95.1403 18.1471C94.4587 18.9962 93.6368 19.6194 92.6709 20.0167C91.7049 20.414 90.7272 20.6166 89.7301 20.6166C88.881 20.6166 88.0435 20.4725 87.2139 20.1803C86.3842 19.8882 85.6442 19.4442 84.9937 18.8482C84.3471 18.2484 83.8174 17.5005 83.4123 16.6047C83.0033 15.7088 82.8008 14.6532 82.8008 13.438C82.8008 12.2266 82.9994 11.171 83.4006 10.2713C83.7979 9.37542 84.3276 8.63146 84.982 8.03941C85.6364 7.45126 86.3803 7.00722 87.2139 6.71898C88.0435 6.42686 88.8848 6.28274 89.7301 6.28274C90.6259 6.28274 91.4984 6.44243 92.3476 6.75794C93.1967 7.07344 93.9523 7.54863 94.6145 8.17963V7.78234ZM85.243 11.1477C84.9781 11.7943 84.8457 12.5616 84.8457 13.4419C84.8457 14.3377 84.982 15.1089 85.2586 15.7477C85.5312 16.3865 85.8973 16.9202 86.357 17.3447C86.8127 17.7693 87.3385 18.0809 87.9267 18.2795C88.5148 18.4782 89.1186 18.5795 89.734 18.5795C90.3494 18.5795 90.9492 18.4782 91.5413 18.2795C92.1294 18.0809 92.6514 17.7732 93.0993 17.3564C93.5628 16.924 93.9329 16.3904 94.2094 15.7477C94.4821 15.1089 94.6223 14.3377 94.6223 13.4419C94.6223 12.5616 94.4821 11.7981 94.1977 11.1477C93.9329 10.5011 93.5706 9.96747 93.1149 9.5507C92.6592 9.13392 92.1333 8.82621 91.5452 8.62757C90.9531 8.42892 90.3533 8.32765 89.7379 8.32765C89.1069 8.32765 88.4992 8.42892 87.9189 8.62757C87.3385 8.82621 86.8166 9.13392 86.3609 9.5507C85.8934 9.96747 85.5234 10.4972 85.243 11.1477ZM102.26 13.4652C102.26 14.3455 102.397 15.109 102.673 15.7594C102.946 16.406 103.312 16.9435 103.772 17.3681C104.228 17.7927 104.753 18.1043 105.341 18.3029C105.93 18.5016 106.533 18.6028 107.149 18.6028C107.429 18.6028 107.671 18.7041 107.873 18.9027C108.076 19.1014 108.173 19.3429 108.173 19.6272C108.173 19.9116 108.072 20.1492 107.873 20.3517C107.675 20.5504 107.433 20.6516 107.149 20.6516C106.3 20.6516 105.462 20.5075 104.633 20.2154C103.803 19.9232 103.063 19.4792 102.412 18.8833C101.766 18.2834 101.236 17.5356 100.831 16.6397C100.422 15.7438 100.219 14.6883 100.219 13.473V9.40268C100.219 9.1534 100.134 8.94696 99.9585 8.77947C99.7832 8.61199 99.5807 8.53019 99.347 8.53019H98.4979C98.2642 8.53019 98.0616 8.4445 97.8863 8.26922C97.7111 8.09394 97.6254 7.8914 97.6254 7.65769C97.6254 7.40841 97.7111 7.20197 97.8863 7.03448C98.0616 6.867 98.2642 6.7852 98.4979 6.7852H99.347C99.5807 6.7852 99.7832 6.69951 99.9585 6.52423C100.134 6.34895 100.219 6.14641 100.219 5.91271V1.0244C100.219 0.743957 100.321 0.502463 100.519 0.29992C100.718 0.101272 100.96 0 101.244 0C101.524 0 101.766 0.101272 101.968 0.29992C102.167 0.498568 102.268 0.740062 102.268 1.0244V5.90881C102.268 6.14251 102.354 6.34506 102.529 6.52034C102.705 6.69561 102.907 6.78131 103.141 6.78131H106.206C106.44 6.78131 106.642 6.8631 106.818 7.03059C106.993 7.19808 107.079 7.40452 107.079 7.6538C107.079 7.8875 106.993 8.09005 106.818 8.26532C106.642 8.4406 106.44 8.52629 106.206 8.52629H103.141C102.907 8.52629 102.705 8.60809 102.529 8.77558C102.354 8.94307 102.268 9.1495 102.268 9.39879V13.4652H102.26ZM80.4481 8.04331C79.49 6.96827 78.0722 6.42296 76.2337 6.42296C74.4459 6.42296 73.0436 6.96437 72.0621 8.02773C71.953 8.14458 71.8556 8.26533 71.7661 8.38607C71.6804 8.26922 71.5908 8.15626 71.4934 8.04331C70.5352 6.96827 69.1174 6.42296 67.2789 6.42296C65.4911 6.42296 64.0889 6.96437 63.1073 8.02773C61.6545 9.60133 61.709 11.767 61.7285 12.1331V19.674C61.7285 20.231 62.1803 20.6828 62.7373 20.6828C63.2943 20.6828 63.7461 20.231 63.7461 19.674V12.102L63.7422 12.0241C63.7422 12.0085 63.6409 10.4154 64.5991 9.3871C65.1834 8.76 66.0832 8.4406 67.2789 8.4406C68.5098 8.4406 69.4173 8.7561 69.9782 9.37542C70.5742 10.0376 70.6871 10.9334 70.6988 11.4086C70.6715 11.7631 70.6793 12.028 70.6871 12.1331V19.674C70.6871 20.231 71.1389 20.6828 71.6959 20.6828C72.2529 20.6828 72.7048 20.231 72.7048 19.674V12.102V11.8955C72.7126 11.8137 72.7203 11.6696 72.7164 11.4788C72.7671 10.9179 72.9502 10.0415 73.5578 9.3871C74.142 8.76 75.0418 8.4406 76.2376 8.4406C77.4684 8.4406 78.376 8.7561 78.9369 9.37542C79.786 10.3141 79.6536 11.7241 79.6497 11.7319L79.6419 11.7904V19.674C79.6419 20.231 80.0937 20.6828 80.6507 20.6828C81.2077 20.6828 81.6595 20.231 81.6595 19.674V11.8955C81.6907 11.4943 81.7725 9.52343 80.4481 8.04331ZM120.988 12.5421C120.797 10.8945 120.003 9.36763 118.756 8.24195C117.498 7.10849 115.885 6.48528 114.214 6.48528C112.407 6.48528 110.701 7.20197 109.404 8.49903C108.107 9.79998 107.394 11.5177 107.398 13.3367C107.398 13.3679 107.406 13.399 107.406 13.4263C107.406 13.4419 107.402 13.4574 107.398 13.473C107.34 15.3271 108.029 17.0915 109.334 18.4392C110.639 19.783 112.368 20.5231 114.214 20.5231C115.254 20.5231 116.255 20.2894 117.194 19.8259C117.673 19.5883 117.872 19.0079 117.634 18.5249C117.397 18.0458 116.816 17.8472 116.333 18.0848C115.667 18.4159 114.951 18.5833 114.211 18.5833C112.898 18.5833 111.659 18.0536 110.724 17.0876C109.786 16.1217 109.295 14.8597 109.334 13.5353C109.334 13.4886 109.33 13.4458 109.326 13.4029C109.326 13.3795 109.334 13.3562 109.334 13.3328C109.33 12.0319 109.844 10.801 110.775 9.87009C111.702 8.93917 112.925 8.42502 114.211 8.42502C116.567 8.42502 118.639 10.2129 119.025 12.5343H113.467C112.929 12.5343 112.497 12.9706 112.497 13.5042C112.497 14.0378 112.933 14.4741 113.467 14.4741H119.27C119.761 14.4741 120.228 14.2637 120.556 13.8976C120.891 13.5276 121.046 13.0329 120.988 12.5421ZM1.93146 15.7166C1.83797 15.1869 1.32772 14.8363 0.801888 14.9298C0.272159 15.0233 -0.0783968 15.5296 0.0150847 16.0593C0.529233 18.9417 1.88861 21.5787 3.93741 23.6898C4.12827 23.8845 4.38145 23.9858 4.63463 23.9858C4.88002 23.9858 5.12541 23.8923 5.31237 23.7093C5.69798 23.3353 5.70577 22.716 5.33185 22.3304C3.5557 20.4997 2.37939 18.2133 1.93146 15.7166ZM28.932 10.9607C28.4062 7.8914 26.9417 5.11811 24.6942 2.93298C24.3086 2.55906 23.6932 2.56685 23.3154 2.95246C22.9414 3.33807 22.9492 3.95349 23.3348 4.33131C25.2863 6.22821 26.556 8.63536 27.0118 11.2918C27.0936 11.767 27.5064 12.102 27.97 12.102C28.0245 12.102 28.079 12.0981 28.1374 12.0864C28.6672 11.9968 29.0255 11.4904 28.932 10.9607ZM20.6239 4.60007C20.1837 4.29236 19.5761 4.40142 19.2684 4.84156C18.9607 5.28171 19.0697 5.88934 19.5099 6.19705C21.8859 7.85245 23.3076 10.5673 23.3076 13.4535C23.3076 13.4613 23.3076 13.5042 23.3076 13.512C23.3037 14.0456 23.7282 14.4663 24.258 14.478C24.2657 14.478 24.2735 14.478 24.2813 14.478C24.8033 14.478 25.2356 14.0495 25.2551 13.5276C25.2551 13.5159 25.2551 13.4691 25.2551 13.4574C25.2551 9.93241 23.5218 6.62161 20.6239 4.60007ZM9.37103 20.6828C7.04567 19.0391 5.64345 16.3593 5.62787 13.5159C5.62398 12.9784 5.18773 12.5499 4.65411 12.5499C4.65021 12.5499 4.65021 12.5499 4.64632 12.5499C4.1088 12.5538 3.67644 12.9939 3.68034 13.5314C3.70371 16.9981 5.40975 20.2699 8.24925 22.2759C8.42063 22.3966 8.61539 22.455 8.81014 22.455C9.11395 22.455 9.41777 22.3109 9.60473 22.0422C9.91244 21.602 9.81117 20.9944 9.37103 20.6828Z" fill="#0076C9"/>
</svg>
